<svg width="156" height="156" viewBox="0 0 156 156" fill="none" xmlns="http://www.w3.org/2000/svg">
<path fill-rule="evenodd" clip-rule="evenodd" d="M47.8838 26.8652C48.1597 26.3868 48.7712 26.2226 49.2496 26.4985L107.75 60.2335C108.228 60.5094 108.392 61.1209 108.116 61.5993C107.84 62.0778 107.229 62.242 106.75 61.9661L48.2505 28.2311C47.7721 27.9552 47.6079 27.3437 47.8838 26.8652Z" fill="black"/>
<path fill-rule="evenodd" clip-rule="evenodd" d="M71.002 13.8879C73.1298 12.6599 75.5433 12.0134 78 12.0134C80.4567 12.0134 82.8702 12.6599 84.998 13.8879C84.9986 13.8883 84.9993 13.8887 85 13.8891L130.5 39.8891C132.626 41.1166 134.392 42.8817 135.621 45.0072C136.849 47.1327 137.497 49.544 137.5 51.9991V104.001C137.497 106.456 136.849 108.867 135.621 110.993C134.392 113.119 132.626 114.884 130.5 116.111L130.496 116.113L85 142.111C84.9996 142.111 84.9993 142.112 84.9989 142.112C82.8709 143.34 80.4571 143.987 78 143.987C75.5429 143.987 73.1291 143.34 71.0011 142.112C71.0007 142.112 71.0004 142.111 71 142.111L25.5039 116.113L25.5 116.111C23.3738 114.884 21.6079 113.119 20.3792 110.993C19.1506 108.867 18.5025 106.456 18.5 104.001V51.9991C18.5025 49.544 19.1506 47.1327 20.3792 45.0072C21.6079 42.8817 23.3738 41.1166 25.5 39.8891L25.5039 39.8869L71 13.8891C71.0007 13.8887 71.0014 13.8883 71.002 13.8879ZM78 14.0134C75.8936 14.0134 73.8242 14.5679 72 15.6211L71.9961 15.6233L26.5 41.6211C26.4993 41.6215 26.4986 41.6219 26.498 41.6223C24.6765 42.6744 23.1635 44.1869 22.1108 46.0081C21.0577 47.8298 20.5022 49.8964 20.5 52.0006V104C20.5022 106.104 21.0577 108.17 22.1108 109.992C23.1634 111.813 24.6763 113.326 26.4977 114.378C26.4984 114.378 26.4992 114.379 26.5 114.379L72 140.379C73.8242 141.432 75.8936 141.987 78 141.987C80.1064 141.987 82.1758 141.432 84 140.379L84.0039 140.377L129.5 114.379C129.501 114.379 129.502 114.378 129.502 114.378C131.324 113.326 132.837 111.813 133.889 109.992C134.942 108.17 135.498 106.103 135.5 103.999V52.0011C135.498 49.8968 134.942 47.83 133.889 46.0081C132.837 44.1869 131.324 42.6744 129.502 41.6223C129.501 41.6219 129.501 41.6215 129.5 41.6211L84.0039 15.6233L84 15.6211C82.1758 14.5679 80.1064 14.0134 78 14.0134Z" fill="black"/>
<path fill-rule="evenodd" clip-rule="evenodd" d="M20.3896 44.7391C20.6661 44.261 21.2778 44.0976 21.7559 44.3742L78.0002 76.9095L134.244 44.3742C134.722 44.0976 135.334 44.261 135.611 44.7391C135.887 45.2171 135.724 45.8289 135.246 46.1054L78.5009 78.9304C78.1911 79.1096 77.8092 79.1096 77.4994 78.9304L20.7544 46.1054C20.2764 45.8289 20.113 45.2171 20.3896 44.7391Z" fill="black"/>
<path fill-rule="evenodd" clip-rule="evenodd" d="M78 77C78.5523 77 79 77.4477 79 78V143.52C79 144.072 78.5523 144.52 78 144.52C77.4477 144.52 77 144.072 77 143.52V78C77 77.4477 77.4477 77 78 77Z" fill="black"/>
</svg>
