<svg width="136" height="136" viewBox="0 0 136 136" fill="none" xmlns="http://www.w3.org/2000/svg">
<path fill-rule="evenodd" clip-rule="evenodd" d="M68 52C59.1634 52 52 59.1634 52 68C52 76.8366 59.1634 84 68 84C76.8366 84 84 76.8366 84 68C84 59.1634 76.8366 52 68 52ZM50 68C50 58.0589 58.0589 50 68 50C77.9411 50 86 58.0589 86 68C86 77.9411 77.9411 86 68 86C58.0589 86 50 77.9411 50 68Z" fill="black"/>
<path fill-rule="evenodd" clip-rule="evenodd" d="M68 6.66675C65.2594 6.66675 62.6311 7.75544 60.6932 9.69331C58.7553 11.6312 57.6666 14.2595 57.6666 17.0001V17.9634L57.6666 17.9674C57.6586 19.9859 57.0605 21.958 55.946 23.6409C54.8315 25.3238 53.2492 26.6441 51.3939 27.4392C51.2694 27.4926 51.1354 27.5201 51 27.5201H50.7519C48.9123 28.2865 46.8888 28.5062 44.9249 28.1501C42.89 27.7811 41.0124 26.811 39.534 25.3649L39.5261 25.3572L39.1862 25.0172C38.2265 24.0564 37.0865 23.2939 35.832 22.7738C34.5776 22.2538 33.2329 21.9862 31.875 21.9862C30.517 21.9862 29.1724 22.2538 27.9179 22.7738C26.6635 23.2939 25.5238 24.056 24.5641 25.0168L24.5633 25.0176C23.6026 25.9773 22.8404 27.1169 22.3204 28.3714C21.8004 29.6258 21.5327 30.9705 21.5327 32.3284C21.5327 33.6864 21.8004 35.031 22.3204 36.2855C22.8404 37.5399 23.6026 38.6796 24.5633 39.6392L24.9115 39.9874C26.3576 41.4658 27.3277 43.3435 27.6966 45.3783C28.0637 47.4028 27.819 49.4905 26.9942 51.3749C26.2752 53.3115 24.993 54.989 23.3124 56.191C21.6232 57.3992 19.6096 58.0712 17.5333 58.1198L17.51 58.1201H17C14.2594 58.1201 11.6311 59.2088 9.69319 61.1466C7.75531 63.0845 6.66663 65.7128 6.66663 68.4534C6.66663 71.194 7.75531 73.8223 9.69319 75.7602C11.6311 77.6981 14.2594 78.7868 17 78.7868H17.9673C19.9858 78.7948 21.9578 79.3929 23.6407 80.5074C25.3222 81.6209 26.6416 83.2015 27.437 85.0546C28.2703 86.9453 28.5186 89.0421 28.1499 91.0752C27.781 93.11 26.8109 94.9877 25.3648 96.466L25.3571 96.4739L25.0171 96.8139C24.0563 97.7736 23.2937 98.9136 22.7737 100.168C22.2537 101.422 21.986 102.767 21.986 104.125C21.986 105.483 22.2537 106.828 22.7737 108.082C23.2937 109.337 24.0559 110.476 25.0167 111.436L25.0175 111.437C25.9771 112.397 27.1168 113.16 28.3712 113.68C29.6257 114.2 30.9703 114.467 32.3283 114.467C33.6863 114.467 35.0309 114.2 36.2853 113.68C37.5398 113.16 38.6794 112.397 39.6391 111.437L39.9873 111.089C41.4657 109.642 43.3434 108.672 45.3782 108.303C47.4027 107.936 49.4904 108.181 51.3748 109.006C53.3114 109.725 54.9888 111.007 56.1909 112.688C57.3991 114.377 58.0711 116.39 58.1197 118.467L58.12 118.49V119C58.12 121.741 59.2086 124.369 61.1465 126.307C63.0844 128.245 65.7127 129.333 68.4533 129.333C71.1939 129.333 73.8222 128.245 75.7601 126.307C77.6979 124.369 78.7866 121.741 78.7866 119V118.037L78.7866 118.033C78.7947 116.014 79.3928 114.042 80.5073 112.359C81.6207 110.678 83.201 109.359 85.054 108.563C86.9448 107.73 89.0418 107.481 91.075 107.85C93.1099 108.219 94.9875 109.189 96.4659 110.635L96.4738 110.643L96.8137 110.983C97.7734 111.944 98.9135 112.706 100.168 113.226C101.422 113.746 102.767 114.014 104.125 114.014C105.483 114.014 106.828 113.746 108.082 113.226C109.336 112.706 110.476 111.944 111.436 110.983L111.437 110.983C112.397 110.023 113.16 108.883 113.68 107.629C114.2 106.374 114.467 105.03 114.467 103.672C114.467 102.314 114.2 100.969 113.68 99.7147C113.16 98.4603 112.397 97.3206 111.437 96.3609L111.088 96.0127C109.642 94.5344 108.672 92.6567 108.303 90.6218C107.935 88.5886 108.183 86.4916 109.016 84.6008C109.812 82.7478 111.131 81.1675 112.813 80.0541C114.495 78.9396 116.467 78.3415 118.486 78.3334L118.49 78.3334L119 78.3334C121.741 78.3334 124.369 77.2447 126.307 75.3069C128.245 73.369 129.333 70.7407 129.333 68.0001C129.333 65.2595 128.245 62.6312 126.307 60.6933C124.369 58.7554 121.741 57.6668 119 57.6668H118.037L118.033 57.6667C116.014 57.6587 114.042 57.0606 112.359 55.9461C110.676 54.8316 109.356 53.2493 108.561 51.394C108.507 51.2695 108.48 51.1355 108.48 51.0001V50.752C107.713 48.9124 107.494 46.889 107.85 44.925C108.219 42.8902 109.189 41.0125 110.635 39.5342L110.643 39.5263L110.983 39.1863C111.944 38.2266 112.706 37.0866 113.226 35.8321C113.746 34.5777 114.014 33.233 114.014 31.8751C114.014 30.5171 113.746 29.1725 113.226 27.918C112.706 26.6636 111.944 25.5239 110.983 24.5642L110.982 24.5635C110.023 23.6027 108.883 22.8405 107.629 22.3205C106.374 21.8005 105.03 21.5328 103.672 21.5328C102.314 21.5328 100.969 21.8005 99.7146 22.3205C98.4601 22.8405 97.3205 23.6027 96.3608 24.5635L96.0126 24.9117C94.5342 26.3577 92.6565 27.3278 90.6217 27.6967C88.5886 28.0654 86.4918 27.817 84.6012 26.9838C82.748 26.1884 81.1675 24.869 80.0539 23.1875C78.9394 21.5046 78.3413 19.5325 78.3333 17.5141L78.3333 17.5101V17.0001C78.3333 14.2595 77.2446 11.6312 75.3067 9.69331C73.3689 7.75544 70.7405 6.66675 68 6.66675ZM59.279 8.2791C61.5919 5.96615 64.729 4.66675 68 4.66675C71.271 4.66675 74.408 5.96615 76.7209 8.2791C79.0339 10.592 80.3333 13.7291 80.3333 17.0001L80.3333 17.5061C80.3333 17.5067 80.3333 17.5073 80.3333 17.508C80.3401 19.1357 80.8226 20.726 81.7214 22.0832C82.6206 23.4409 83.8971 24.5061 85.3939 25.1476L85.4037 25.1518C86.9301 25.8255 88.6232 26.0265 90.2649 25.7288C91.9048 25.4315 93.4182 24.6502 94.6103 23.4855C94.6115 23.4843 94.6128 23.4831 94.614 23.4819L94.9458 23.15C94.9459 23.1499 94.9457 23.1502 94.9458 23.15C96.0911 22.0035 97.4516 21.0936 98.9487 20.473C100.446 19.8523 102.051 19.5328 103.672 19.5328C105.292 19.5328 106.897 19.8523 108.395 20.473C109.891 21.0935 111.251 22.0029 112.397 23.1492C113.543 24.2947 114.453 25.6549 115.074 27.1522C115.694 28.6494 116.014 30.2543 116.014 31.8751C116.014 33.4959 115.694 35.1008 115.074 36.598C114.453 38.0953 113.543 39.4555 112.397 40.6009L112.065 40.9327C112.064 40.934 112.062 40.9353 112.061 40.9366C110.896 42.1287 110.115 43.642 109.818 45.2818C109.52 46.9235 109.721 48.6166 110.395 50.143C110.451 50.2702 110.48 50.4077 110.48 50.5467V50.7888C111.128 52.2068 112.161 53.4162 113.463 54.2786C114.821 55.1774 116.411 55.6599 118.039 55.6668H119C122.271 55.6668 125.408 56.9662 127.721 59.2791C130.034 61.5921 131.333 64.7291 131.333 68.0001C131.333 71.2711 130.034 74.4081 127.721 76.7211C125.408 79.034 122.271 80.3334 119 80.3334L118.494 80.3334C118.493 80.3334 118.493 80.3334 118.492 80.3334C116.864 80.3403 115.274 80.8228 113.917 81.7216C112.559 82.6207 111.494 83.8972 110.852 85.394L110.848 85.4039C110.175 86.9302 109.974 88.6234 110.271 90.265C110.569 91.9048 111.35 93.418 112.514 94.6101C112.515 94.6114 112.517 94.6128 112.518 94.6142L112.85 94.9459C112.85 94.946 112.85 94.9458 112.85 94.9459C113.997 96.0913 114.906 97.4518 115.527 98.9488C116.148 100.446 116.467 102.051 116.467 103.672C116.467 105.293 116.148 106.897 115.527 108.395C114.906 109.892 113.997 111.252 112.85 112.397C111.705 113.544 110.345 114.453 108.848 115.074C107.351 115.695 105.746 116.014 104.125 116.014C102.504 116.014 100.899 115.695 99.402 115.074C97.9049 114.453 96.5449 113.544 95.3995 112.397C95.3994 112.397 95.3996 112.397 95.3995 112.397L95.0674 112.065C95.066 112.064 95.0646 112.062 95.0633 112.061C93.8712 110.897 92.358 110.115 90.7182 109.818C89.0766 109.52 87.3834 109.721 85.8571 110.395L85.8472 110.399C84.3505 111.041 83.0739 112.106 82.1748 113.464C81.276 114.821 80.7935 116.411 80.7866 118.039C80.7866 118.039 80.7866 118.04 80.7866 118.041L80.7866 119C80.7866 122.271 79.4872 125.408 77.1743 127.721C74.8613 130.034 71.7243 131.333 68.4533 131.333C65.1823 131.333 62.0453 130.034 59.7323 127.721C57.4194 125.408 56.12 122.271 56.12 119V118.502C56.0786 116.831 55.5366 115.211 54.5641 113.851C53.5894 112.488 52.2273 111.45 50.6548 110.872C50.6441 110.868 50.6336 110.864 50.6231 110.86C50.6141 110.856 50.6051 110.852 50.5962 110.848C49.0698 110.175 47.3767 109.974 45.735 110.271C44.0952 110.569 42.5819 111.35 41.3898 112.514C41.3885 112.516 41.3872 112.517 41.3859 112.518L41.0541 112.85C39.9087 113.997 38.5485 114.907 37.0512 115.527C35.554 116.148 33.9491 116.467 32.3283 116.467C30.7075 116.467 29.1026 116.148 27.6054 115.527C26.1081 114.907 24.7479 113.997 23.6025 112.85C22.4561 111.705 21.5467 110.345 20.9262 108.848C20.3055 107.351 19.986 105.746 19.986 104.125C19.986 102.504 20.3055 100.899 20.9262 99.4022C21.5468 97.9051 22.4563 96.545 23.6029 95.3996C23.603 95.3995 23.6027 95.3998 23.6029 95.3996L23.9351 95.0675C23.9363 95.0662 23.9376 95.0649 23.9388 95.0637C25.1034 93.8716 25.8847 92.3582 26.182 90.7183C26.4797 89.0767 26.2787 87.3835 25.6051 85.8572L25.6008 85.8474C24.9593 84.3506 23.8942 83.074 22.5364 82.1749C21.1793 81.2761 19.589 80.7936 17.9612 80.7868C17.9605 80.7868 17.9599 80.7867 17.9593 80.7867L17 80.7868C13.729 80.7868 10.5919 79.4874 8.27898 77.1744C5.96603 74.8615 4.66663 71.7244 4.66663 68.4534C4.66663 65.1824 5.96603 62.0454 8.27898 59.7324C10.5919 57.4195 13.729 56.1201 17 56.1201H17.498C19.169 56.0787 20.7892 55.5368 22.1489 54.5643C23.5117 53.5896 24.5497 52.2274 25.1281 50.6549C25.1354 50.6351 25.1433 50.6156 25.1518 50.5963C25.8254 49.07 26.0264 47.3768 25.7287 45.7352C25.4314 44.0953 24.6501 42.5819 23.4855 41.3898L23.1499 41.0542C22.0032 39.9088 21.0935 38.5486 20.4728 37.0513C19.8522 35.5541 19.5327 33.9492 19.5327 32.3284C19.5327 30.7076 19.8522 29.1027 20.4728 27.6055C21.0935 26.1082 22.0032 24.748 23.1499 23.6026C24.2952 22.4562 25.6551 21.5468 27.152 20.9263C28.6493 20.3056 30.2542 19.9862 31.875 19.9862C33.4957 19.9862 35.1006 20.3056 36.5979 20.9263C38.095 21.5469 39.455 22.4564 40.6004 23.603C40.6005 23.6031 40.6003 23.6028 40.6004 23.603L40.9365 23.939C42.1285 25.1036 43.6419 25.8848 45.2817 26.1822C46.9233 26.4798 48.6165 26.2789 50.1429 25.6052C50.2701 25.5491 50.4076 25.5201 50.5466 25.5201H50.7886C52.2066 24.8718 53.4161 23.8387 54.2785 22.5366C55.1773 21.1794 55.6598 19.5891 55.6666 17.9613V17.0001C55.6666 13.7291 56.966 10.592 59.279 8.2791Z" fill="black"/>
</svg>
